<?xml version="1.0" encoding="UTF-8" standalone="no"?>
<svg
   width="24"
   height="24"
   viewBox="0 0 24 24"
   version="1.1"
   id="svg4"
   sodipodi:docname="script.svg"
   inkscape:version="1.2.2 (b0a8486541, 2022-12-01)"
   xmlns:inkscape="http://www.inkscape.org/namespaces/inkscape"
   xmlns:sodipodi="http://sodipodi.sourceforge.net/DTD/sodipodi-0.dtd"
   xmlns="http://www.w3.org/2000/svg"
   xmlns:svg="http://www.w3.org/2000/svg">
  <defs
     id="defs8" />
  <sodipodi:namedview
     id="namedview6"
     pagecolor="#ffffff"
     bordercolor="#000000"
     borderopacity="0.25"
     inkscape:showpageshadow="2"
     inkscape:pageopacity="0.0"
     inkscape:pagecheckerboard="0"
     inkscape:deskcolor="#d1d1d1"
     showgrid="false"
     inkscape:zoom="9.8333333"
     inkscape:cx="11.186441"
     inkscape:cy="12"
     inkscape:window-width="1920"
     inkscape:window-height="1060"
     inkscape:window-x="1920"
     inkscape:window-y="350"
     inkscape:window-maximized="1"
     inkscape:current-layer="svg4" />
  <path
     d="M 20.570934,12.677754 C 19.703631,11.616825 17.317656,8.9194418 16.469091,7.9629103 l -1.591839,0.908348 4.155379,4.7737347 c 0.555895,0.617463 0.40956,1.520457 -0.335499,1.99783 -0.689738,0.443467 -4.765704,3.012361 -5.698144,3.600378 C 12.932959,18.599862 12.679549,18.00203 12.261959,17.505026 11.843477,17.008022 6.8056249,10.923518 5.549285,9.3156172 5.1308025,8.7793528 5.0362201,8.2038278 5.2860604,7.694332 5.5251933,7.2044666 6.0373659,6.8752127 6.5620306,6.8752127 c 0.8200115,0 1.2563398,0.5844479 1.3821522,1.0841285 0.1427659,0.5719558 -0.03123,1.0984051 -0.5558946,1.5035033 L 8.5741373,10.911918 15.530406,6.9448111 C 16.799238,6.0070177 17.156152,4.2759812 16.360232,2.9179207 15.808799,1.9783427 14.7907,1.3956795 13.703002,1.3956795 c -1.060036,0 -0.707583,-0.014277 -8.5347234,3.9929834 -1.101082,0.5273415 -1.829188,1.5945165 -1.829188,2.8571024 0,0.7762895 0.2748243,1.5668556 0.793243,2.2191177 1.2732933,1.600763 6.7465804,8.195654 6.7956564,8.259899 0.331038,0.439897 0.381006,0.998469 0.133843,1.492796 -0.247163,0.495219 -0.724537,0.790566 -1.2750779,0.790566 -0.8200116,0 -1.2563398,-0.584448 -1.3821523,-1.085021 -0.1391967,-0.561248 0.010708,-1.077882 0.5389413,-1.475842 L 7.8040938,17.068698 c -0.7334598,0.59337 -1.1394503,1.334861 -1.2286789,2.178964 -0.2070106,1.967493 1.3607374,3.562901 3.2238322,3.562901 0.5318029,0 1.1697879,-0.157934 1.6427009,-0.455066 l 8.411587,-5.305537 c 0.853919,-0.592479 1.331292,-1.589163 1.331292,-2.584955 0,-0.663862 -0.214149,-1.297385 -0.613893,-1.787251 z M 13.172092,3.3158806 c 0.16775,-0.077629 0.35513,-0.1195664 0.543402,-0.1195664 0.474697,0 0.88961,0.2507326 1.109113,0.6709997 0.278393,0.5318029 0.201657,1.3107693 -0.488973,1.7060524 L 9.7876474,8.1502906 C 9.7421408,7.1785902 9.2710133,6.2934417 8.4893701,5.712563 Z m -2.11829,10.9438984 0.884257,-2.401144 0.725429,0.907456 -0.397067,1.278647 1.590055,0.212364 0.724537,0.905671 -3.032883,-0.286424 z m 4.890625,-2.744674 0.492542,0.61657 -0.883364,2.401144 -0.724537,-0.905671 0.392606,-1.283109 -1.586485,-0.20701 -0.724537,-0.906564 z"
     id="path2"
     style="fill:#e30613;fill-opacity:1;stroke-width:0.892287" />
</svg>
